<svg width="1440" height="356" xmlns="http://www.w3.org/2000/svg"><g fill="none" fill-rule="nonzero"><g opacity=".4"><path fill="#B6CEDE" opacity=".33" d="M441.062 55.788v54.78h-54.906v-54.78z"/><path fill="#B6CEDE" opacity=".63" d="M217.25 137.978v78.69h-78.875v-78.69z"/><path fill="#B0DEFF" d="M138.375 216.668v139.09H-1v-139.09z"/><path fill="#8DAABD" opacity=".24" d="M386.156 110.568v54.78H331.25v-54.78z"/><path fill="#B6CEDE" opacity=".8" d="M331.25 55.788v54.78h-54.906v-54.78zM358.562 220.568v26.5h-26.593v-26.5zM636.469 206.318v40.75h-40.813v-40.75z"/><path fill="#FFF" d="M331.25 165.348v54.85h-54.906v-54.85z"/><path fill="#B6CEDE" opacity=".29" d="M276.344 1.008v54.78h-54.906V1.008z"/><path fill="#FFF" d="M276.344 55.788v54.78h-54.906v-54.78zM386.156 1.008v54.78H331.25V1.008z"/><path fill="#E4EBF1" d="M445.312 203.318v34.41h-34.531v-34.41z"/><path fill="#FFF" d="M141 103.633v34.437h-34.5v-34.437zM535.406 110.568v92.75H442.5v-92.75z"/></g><g opacity=".27"><path fill="#B6CEDE" opacity=".33" d="M992 91.219h-58v58.094h58z"/><path fill="#B6CEDE" opacity=".63" d="M1290.75 148.344h-83.281v83.375h83.281z"/><path fill="#B0DEFF" d="M1438 1h-147.25v147.344H1438z"/><path fill="#B6CEDE" opacity=".8" d="M1178.437 294.25h-57.969v58h57.969zM992 185h-28.094v28.063H992z"/><path fill="#FFF" d="M1294.469 294.25h-58v58h58z"/><path fill="#B6CEDE" opacity=".29" d="M1120.469 236.188h-58v58.063h58z"/><path fill="#FFF" d="M1178.469 236.188h-58v58.063h58z"/><path fill="#D3E1EA" opacity=".46" d="M1120.469 56.094h-92.219v92.25h92.219z"/><path fill="#FFF" d="M1028.25 148.344h-36.469v36.5h36.469z"/><path fill="#D3E1EA" d="M1064.938 185.062H1028.5V221.5h36.438z"/><path fill="#8DAABD" opacity=".13" d="M1004.469 280.813h-36.438v36.531h36.438z"/><path fill="#FFF" d="M964 213h-98.188v98.25H964z"/></g></g></svg>